<svg width="18" height="18" viewBox="0 0 18 18" fill="none" xmlns="http://www.w3.org/2000/svg">
<path fill-rule="evenodd" clip-rule="evenodd" d="M8.99965 2.74927C5.54787 2.74927 2.74965 5.54749 2.74965 8.99927C2.74965 12.451 5.54787 15.2493 8.99965 15.2493C12.4514 15.2493 15.2496 12.451 15.2496 8.99927C15.2496 5.54749 12.4514 2.74927 8.99965 2.74927ZM1.74965 8.99927C1.74965 4.9952 4.99558 1.74927 8.99965 1.74927C13.0037 1.74927 16.2496 4.9952 16.2496 8.99927C16.2496 13.0033 13.0037 16.2493 8.99965 16.2493C4.99558 16.2493 1.74965 13.0033 1.74965 8.99927ZM8.33414 5.05809C8.4287 4.95678 8.56107 4.89927 8.69965 4.89927H9.29965C9.43823 4.89927 9.5706 4.95678 9.66516 5.05809C9.75972 5.1594 9.808 5.29541 9.79846 5.43367L9.49846 9.78367C9.48038 10.0458 9.26244 10.2493 8.99965 10.2493C8.73686 10.2493 8.51891 10.0458 8.50083 9.78367L8.20083 5.43367C8.1913 5.29541 8.23957 5.1594 8.33414 5.05809ZM9.89965 12.2993C9.89965 12.7963 9.49671 13.1993 8.99965 13.1993C8.50259 13.1993 8.09965 12.7963 8.09965 12.2993C8.09965 11.8022 8.50259 11.3993 8.99965 11.3993C9.49671 11.3993 9.89965 11.8022 9.89965 12.2993Z" fill="#DC3545"/>
</svg>
